# xmcd CD database file
#
# Track frame offsets:
#	150
#	16907
#	31920
#	45702
#	61435
#	79345
#	100675
#	115225
#	128002
#	141317
#	154865
#	178885
#
# Disc length: 2605 seconds
#
# Revision: 0
# Processed by: cddbd v1.5.1PL2 Copyright (c) Steve Scherf et al.
# Submitted via: CDex 1.51
#
DISCID=9e0a2b0c
DTITLE=Ian Dury and The Blockheads - Sex and Drugs and Rock and Roll
DYEAR=1900
DGENRE=Rhythmic Soul
TTITLE0=Hit Me With Your Rhythm Stick
TTITLE1=I Want To Be Straight
TTITLE2=There Ain't Half Been Some Clever Bastards
TTITLE3=What A Waste !
TTITLE4=Common As Muck
TTITLE5=Reason To Be Cheerful Pt. 3
TTITLE6=Sex and Drugs and Rock and Roll
TTITLE7=Superman's Big Sister
TTITLE8=Razzle In My Pocket
TTITLE9=You're More Than Fair
TTITLE10=Inbetweenies
TTITLE11=You'll See Glimpses
EXTD=
EXTT0=
EXTT1=
EXTT2=
EXTT3=
EXTT4=
EXTT5=
EXTT6=
EXTT7=
EXTT8=
EXTT9=
EXTT10=
EXTT11=
PLAYORDER=
